<svg id="Filledoutline" height="512" viewBox="0 0 512 512" width="512" xmlns="http://www.w3.org/2000/svg"><path d="m411.63 78.02v89.98h-311.26v-89.98l75.63-54.02h160z" fill="#eaae48"/><path d="m411.63 127.68v40.32h-311.26v-40.32a191.827 191.827 0 0 1 311.26 0z" fill="#d7a147"/><path d="m416 184h48v152h-48z" fill="#e4e4e3"/><path d="m416 184h48v40h-48z" fill="#cacac9"/><path d="m416 184v152h32v-96a191.194 191.194 0 0 0 -8.33-56z" fill="#cacac9"/><path d="m416 184v40h31.34a190.235 190.235 0 0 0 -7.67-40z" fill="#b3b1b3"/><path d="m408 320v120h88v-96a24.006 24.006 0 0 0 -24-24z" fill="#b3b1b3"/><path d="m408 320h40v72h-40z" fill="#969595"/><path d="m392 64v144h72l24-56v-88l-24-24h-48z" fill="#e4e4e3"/><path d="m392 104.6v103.4h53.33a191.585 191.585 0 0 0 -53.33-103.4z" fill="#cacac9"/><circle cx="440" cy="88" fill="#0093b9" r="24"/><circle cx="440" cy="88" fill="#2da4c4" r="16"/><circle cx="440" cy="88" fill="#5db9d2" r="8"/><ellipse cx="451.081" cy="76.919" fill="#8acadb" rx="3.735" ry="5.867" transform="matrix(.707 -.707 .707 .707 77.729 341.492)"/><path d="m392 64v48h-64v-48c0-.66.02-1.32.06-1.97a32 32 0 0 1 63.94 1.97z" fill="#b3b1b3"/><path d="m392 104.6v7.4h-64v-48c0-.66.02-1.32.06-1.97a192.722 192.722 0 0 1 63.94 42.57z" fill="#969595"/><path d="m48 184h48v152h-48z" fill="#e4e4e3"/><path d="m48 184h48v40h-48z" fill="#cacac9"/><path d="m96 184v152h-32v-96a191.194 191.194 0 0 1 8.33-56z" fill="#cacac9"/><path d="m96 184v40h-31.34a190.235 190.235 0 0 1 7.67-40z" fill="#b3b1b3"/><path d="m104 320v120h-88v-96a24.006 24.006 0 0 1 24-24z" fill="#b3b1b3"/><path d="m64 320h40v72h-40z" fill="#969595"/><path d="m120 64v144h-72l-24-56v-88l24-24h48z" fill="#e4e4e3"/><path d="m120 104.6v103.4h-53.33a191.585 191.585 0 0 1 53.33-103.4z" fill="#cacac9"/><circle cx="72" cy="88" fill="#0093b9" r="24"/><circle cx="72" cy="88" fill="#2da4c4" r="16"/><circle cx="72" cy="88" fill="#5db9d2" r="8"/><ellipse cx="60.919" cy="76.919" fill="#8acadb" rx="5.867" ry="3.735" transform="matrix(.707 -.707 .707 .707 -36.547 65.605)"/><path d="m256 64a176 176 0 0 1 176 176v136a0 0 0 0 1 0 0h-352a0 0 0 0 1 0 0v-136a176 176 0 0 1 176-176z" fill="#b3b1b3"/><path d="m80 256h352v48h-352z" fill="#808080"/><path d="m332.33 117.88 30.61-18.36a16 16 0 0 1 19.55 2.4l27.59 27.59a16 16 0 0 1 2.4 19.55l-22.64 37.73z" fill="#808080"/><path d="m368 360c96 0 128 64 128 64v72h-480v-72s32-64 128-64z" fill="#e4e4e3"/><path d="m120 332.986v35.014c0 48.6 60.889 88 136 88s136-39.4 136-88v-35z" fill="#cacac9"/><path d="m120 332.986v3.014c0 48.6 60.889 88 136 88s136-39.4 136-88v-3z" fill="#e4e4e3"/><path d="m400 304c0 48.6-64.471 88-144 88s-144-39.4-144-88v-64a144 144 0 0 1 144-144 144 144 0 0 1 144 144z" fill="#ce892a"/><path d="m256 376c-69.383 0-128-32.972-128-72v-64a128 128 0 0 1 256 0v64c0 39.028-58.617 72-128 72z" fill="#eaae48"/><path d="m357.6 217.712a103.882 103.882 0 0 1 2.14 14.853l15.96-1.13a119.971 119.971 0 0 0 -2.471-17.147z"/><path d="m324.727 141.676a119.939 119.939 0 0 0 -104.376-16.27l4.761 15.276a104.133 104.133 0 0 1 128.037 62.183l14.939-5.73a120.029 120.029 0 0 0 -43.361-55.459z"/><path d="m352 56h16v16h-16z"/><path d="m72 112a24 24 0 1 0 -24-24 24.027 24.027 0 0 0 24 24zm0-32a8 8 0 1 1 -8 8 8.009 8.009 0 0 1 8-8z"/><path d="m64 128h16v16h-16z"/><path d="m40 344h16v16h-16z"/><path d="m456 344h16v16h-16z"/><path d="m504 384v-40a32.036 32.036 0 0 0 -32-32v-102.358l23.353-54.491a7.993 7.993 0 0 0 .647-3.151v-88a8 8 0 0 0 -2.343-5.657l-24-24a8 8 0 0 0 -5.657-2.343h-48a8 8 0 0 0 -5.657 2.343l-13.682 13.682a39.941 39.941 0 0 0 -45.501-23.025l-10.511-7.51a8 8 0 0 0 -4.649-1.49h-160a8 8 0 0 0 -4.65 1.49l-50.485 36.061-19.208-19.208a8 8 0 0 0 -5.657-2.343h-48a8 8 0 0 0 -5.657 2.343l-24 24a8 8 0 0 0 -2.343 5.657v88a7.993 7.993 0 0 0 .647 3.151l23.353 54.491v102.358a32.036 32.036 0 0 0 -32 32v40h16v-40a16.019 16.019 0 0 1 16-16h32v38.04a145.145 145.145 0 0 0 -33 19.713c-21.128 16.9-29.8 33.952-30.157 34.669l14.3 7.18c.076-.149 7.829-15.136 26.5-29.871 17.573-13.866 38.481-22.92 62.409-27.081 1 25.3 16.332 48.757 43.431 66.292a149.242 149.242 0 0 0 20.602 11.058h-8.085a40.045 40.045 0 0 0 -40 40v8h16v-8a24.027 24.027 0 0 1 24-24h80v32h16v-32h80a24.027 24.027 0 0 1 24 24v8h16v-8a40.045 40.045 0 0 0 -40-40h-8.085a149.242 149.242 0 0 0 20.6-11.058c27.1-17.535 42.43-40.989 43.431-66.292 23.928 4.161 44.836 13.215 62.409 27.081 18.675 14.735 26.428 29.722 26.492 29.847l14.31-7.156c-.358-.717-9.029-17.766-30.157-34.669a145.145 145.145 0 0 0 -33-19.713v-38.04h32a16.019 16.019 0 0 1 16 16v40zm-84.686-336h41.372l19.314 19.314v83.044l-21.275 49.642h-23.125a183.207 183.207 0 0 0 -16.839-45.851l.583-.973a23.97 23.97 0 0 0 -3.6-29.323l-15.744-15.737v-40.8zm-331.314 248v-32h16v32zm49.207-174.793a168.04 168.04 0 0 1 210.593-21.931l-15.506 9.3a151.056 151.056 0 0 0 -76.294-20.576c-83.813 0-152 68.187-152 152v8h-16v-8a166.9 166.9 0 0 1 49.207-118.793zm267.216 13.96a7.992 7.992 0 0 1 1.2 9.777l-14.872 24.784a153.076 153.076 0 0 0 -43.685-51.356l19.993-11.992a7.99 7.99 0 0 1 9.777 1.2zm-50.771 224.233c-25.96 15.863-60.64 24.6-97.652 24.6s-71.692-8.737-97.652-24.6c-24.729-15.113-38.348-34.788-38.348-55.4v-64c0-74.991 61.009-136 136-136s136 61.009 136 136v64c0 20.612-13.619 40.287-38.348 55.4zm-211.311 8.615q3.671 2.592 7.664 5.038c28.437 17.377 66.08 26.947 105.995 26.947s77.558-9.57 106-26.948q4-2.442 7.664-5.038 1.751.014 3.486.057c-6.067 8.554-14.581 16.486-25.324 23.438-24.413 15.791-57.026 24.491-91.826 24.491s-67.413-8.7-91.821-24.491c-10.743-6.952-19.257-14.884-25.324-23.438q1.736-.044 3.486-.057zm256.346-180.415 10.267-17.111a168.271 168.271 0 0 1 15.046 69.511v8h-16v-8a151.3 151.3 0 0 0 -9.313-52.4zm9.313 76.4h16v32h-16zm-24-200v28.965a23.938 23.938 0 0 0 -20.64-2.4 184.267 184.267 0 0 0 -27.36-16.345v-10.22a24 24 0 0 1 48 0zm-205.437-32h154.874l1.357.97a39.935 39.935 0 0 0 -14.794 31.03v3.4a184.4 184.4 0 0 0 -192 40.442v-39.725zm-146.563 35.314 19.314-19.314h41.372l19.314 19.314v58.128a182.085 182.085 0 0 0 -35.659 74.558h-23.066l-21.275-49.642zm24 244.686v-96h17.552a186.91 186.91 0 0 0 -1.552 24v72zm32 0h16.514a66.913 66.913 0 0 0 7.486 23.146v19.354a173.673 173.673 0 0 0 -24 5.617zm259.821 111.509c-24.408 15.791-57.021 24.491-91.821 24.491s-67.413-8.7-91.821-24.491c-17.522-11.338-29.131-25.281-33.825-40.289a112.956 112.956 0 0 0 25.133 21.722c26.967 17.449 62.662 27.058 100.513 27.058s73.546-9.609 100.513-27.058a112.956 112.956 0 0 0 25.133-21.722c-4.694 15.008-16.303 28.951-33.825 40.289zm52.179-69.009v-19.35a66.913 66.913 0 0 0 7.486-23.15h16.514v48.113a173.673 173.673 0 0 0 -24-5.613zm38.423-138.5h17.577v96h-16v-72a184.351 184.351 0 0 0 -1.577-24z"/><path d="m440 112a24 24 0 1 0 -24-24 24.027 24.027 0 0 0 24 24zm0-32a8 8 0 1 1 -8 8 8.009 8.009 0 0 1 8-8z"/><path d="m432 128h16v16h-16z"/></svg>